<svg width="30" height="30" viewBox="0 0 30 30" fill="none" xmlns="http://www.w3.org/2000/svg">
<g clip-path="url(#clip0_23_1147)">
<path d="M15 27.0366V30.0347L30 20.0347V17.0366L15 27.0366Z" fill="#F3AA3C"/>
<path d="M18.0521 0.5H15.698L1.23367 10.1428H3.58785L18.0521 0.5Z" fill="#F3AA3C"/>
<path d="M4.2858 25.7491L19.2858 15.7491V0.965332L4.2858 10.9654V25.7491Z" fill="#F3AA3C"/>
<path d="M3.74924 27.2856C3.68566 27.2842 3.62279 27.2716 3.56367 27.2481C3.55172 27.2437 3.53994 27.2402 3.5284 27.2348C3.47379 27.2102 3.42381 27.1765 3.38051 27.1352C3.37201 27.127 3.36568 27.1176 3.35771 27.1088C3.33832 27.0897 3.32045 27.0691 3.30428 27.0472C3.2949 27.0332 3.29373 27.0169 3.28588 27.0023C3.25248 26.9387 3.23145 26.8694 3.22395 26.7979C3.22242 26.7813 3.21428 26.767 3.21428 26.7501V11.2144H0V30.5001H13.9286V27.2858H3.75L3.74924 27.2856Z" fill="#F3AA3C"/>
<path d="M19.9836 16.5713L5.51926 26.2141H14.3021L28.7663 16.5713H19.9836Z" fill="#F3AA3C"/>
</g>
<defs>
<clipPath id="clip0_23_1147">
<rect width="30" height="30" fill="white" transform="translate(0 0.5)"/>
</clipPath>
</defs>
</svg>
