<svg width="30" height="30" viewBox="0 0 30 30" fill="none" xmlns="http://www.w3.org/2000/svg">
<g clip-path="url(#clip0_23_1264)">
<g clip-path="url(#clip1_23_1264)">
<path d="M17.3125 0.5H2.9375C1.0375 0.5 -0.5 2.0375 -0.5 3.9375V23.3125C-0.5 25.2125 1.0375 26.75 2.9375 26.75H12.1625L12.4375 25.2125C12.5625 24.5125 12.8875 23.8875 13.3875 23.375L20.75 16.025V3.9375C20.75 2.0375 19.2125 0.5 17.3125 0.5V0.5ZM4.5 5.5H9.5C10.1875 5.5 10.75 6.0625 10.75 6.75C10.75 7.4375 10.1875 8 9.5 8H4.5C3.8125 8 3.25 7.4375 3.25 6.75C3.25 6.0625 3.8125 5.5 4.5 5.5ZM10.75 18H4.5C3.8125 18 3.25 17.4375 3.25 16.75C3.25 16.0625 3.8125 15.5 4.5 15.5H10.75C11.4375 15.5 12 16.0625 12 16.75C12 17.4375 11.4375 18 10.75 18ZM15.75 13H4.5C3.8125 13 3.25 12.4375 3.25 11.75C3.25 11.0625 3.8125 10.5 4.5 10.5H15.75C16.4375 10.5 17 11.0625 17 11.75C17 12.4375 16.4375 13 15.75 13Z" fill="#F3AA3C"/>
<path d="M15.1601 30.4999C14.9138 30.4999 14.6738 30.4024 14.4976 30.2249C14.2813 30.0086 14.1838 29.7011 14.2376 29.3986L14.9001 25.6424C14.9326 25.4536 15.0251 25.2787 15.1601 25.1424L24.4414 15.8624C25.5814 14.7199 26.7014 15.0287 27.3139 15.6412L28.8601 17.1874C29.7139 18.0399 29.7139 19.4274 28.8601 20.2812L19.5789 29.5624C19.4439 29.6986 19.2689 29.7899 19.0789 29.8224L15.3226 30.4849C15.2688 30.4949 15.2138 30.4999 15.1601 30.4999ZM18.9164 28.8999H18.9289H18.9164Z" fill="#F3AA3C"/>
</g>
</g>
<defs>
<clipPath id="clip0_23_1264">
<rect width="30" height="30" fill="white"/>
</clipPath>
<clipPath id="clip1_23_1264">
<rect width="30" height="30" fill="white" transform="translate(-0.5 0.5)"/>
</clipPath>
</defs>
</svg>
