<svg width="30" height="30" viewBox="0 0 30 30" fill="none" xmlns="http://www.w3.org/2000/svg">
<g clip-path="url(#clip0_23_1857)">
<path d="M25.1693 16.5148H22.8493C23.0858 17.1622 23.215 17.861 23.215 18.5892V27.3578C23.215 27.6614 23.1621 27.9529 23.066 28.2239H26.9015C28.3343 28.2239 29.4999 27.0583 29.4999 25.6255V20.8454C29.5 18.4575 27.5573 16.5148 25.1693 16.5148Z" fill="#F3AA3C"/>
<path d="M5.78507 18.5893C5.78507 17.861 5.91427 17.1624 6.15075 16.5149H3.83067C1.44274 16.5149 -0.5 18.4576 -0.5 20.8456V25.6257C-0.5 27.0584 0.665608 28.2241 2.0984 28.2241H5.93407C5.83792 27.9529 5.78507 27.6616 5.78507 27.3579V18.5893Z" fill="#F3AA3C"/>
<path d="M17.1521 14.2588H11.848C9.4601 14.2588 7.51736 16.2015 7.51736 18.5895V27.358C7.51736 27.8363 7.90513 28.2242 8.38349 28.2242H20.6166C21.0949 28.2242 21.4827 27.8364 21.4827 27.358V18.5895C21.4827 16.2015 19.54 14.2588 17.1521 14.2588Z" fill="#F3AA3C"/>
<path d="M14.5 2.77576C11.6282 2.77576 9.29185 5.11213 9.29185 7.98399C9.29185 9.93194 10.367 11.6332 11.9548 12.5264C12.7079 12.9501 13.5761 13.1922 14.5 13.1922C15.4239 13.1922 16.2922 12.9501 17.0453 12.5264C18.6331 11.6332 19.7082 9.93188 19.7082 7.98399C19.7082 5.11219 17.3718 2.77576 14.5 2.77576Z" fill="#F3AA3C"/>
<path d="M5.35444 7.63025C3.20668 7.63025 1.45942 9.37752 1.45942 11.5253C1.45942 13.673 3.20668 15.4203 5.35444 15.4203C5.89925 15.4203 6.41804 15.3075 6.88931 15.1046C7.70411 14.7538 8.37595 14.1328 8.79168 13.355C9.08347 12.8091 9.24947 12.1863 9.24947 11.5253C9.24947 9.37758 7.5022 7.63025 5.35444 7.63025Z" fill="#F3AA3C"/>
<path d="M23.6456 7.63025C21.4978 7.63025 19.7505 9.37752 19.7505 11.5253C19.7505 12.1863 19.9165 12.8091 20.2083 13.355C20.624 14.1329 21.2959 14.7539 22.1107 15.1046C22.582 15.3075 23.1008 15.4203 23.6456 15.4203C25.7933 15.4203 27.5406 13.673 27.5406 11.5253C27.5406 9.37752 25.7933 7.63025 23.6456 7.63025Z" fill="#F3AA3C"/>
</g>
<defs>
<clipPath id="clip0_23_1857">
<rect width="30" height="30" fill="white" transform="translate(-0.5 0.5)"/>
</clipPath>
</defs>
</svg>
