<svg width="30" height="30" viewBox="0 0 30 30" fill="none" xmlns="http://www.w3.org/2000/svg">
<g clip-path="url(#clip0_23_1550)">
<path d="M14.5 16.586C15.0999 16.586 15.5862 16.0997 15.5862 15.4999C15.5862 14.9 15.0999 14.4137 14.5 14.4137C13.9002 14.4137 13.4139 14.9 13.4139 15.4999C13.4139 16.0997 13.9002 16.586 14.5 16.586Z" fill="#F3AA3C"/>
<path d="M29.1926 11.5631L28.8851 10.4157L26.8183 10.9695C26.8578 10.8079 26.8925 10.6464 26.9222 10.4858C27.3377 8.23544 26.7614 6.25007 25.2557 4.74425L24.4158 3.90432L22.9027 5.41739C22.8561 5.2575 22.8054 5.1004 22.7508 4.94651C21.9855 2.78983 20.4937 1.35858 18.4369 0.807426L17.2895 0.5L16.7356 2.5669C16.6154 2.45169 16.4929 2.34099 16.3687 2.23499C14.6275 0.749969 12.62 0.256329 10.5631 0.807426L9.41571 1.11485L9.96912 3.18032C8.957 2.93285 7.72047 2.82013 6.45345 3.15964C5.43414 3.43279 4.52262 3.96594 3.74419 4.74431L2.90438 5.58423L4.41739 7.09724C2.68513 7.60104 0.551808 8.78517 -0.192574 11.5631L-0.5 12.7105L1.5669 13.2644C1.45175 13.3846 1.34099 13.507 1.23499 13.6313C-0.250031 15.3725 -0.743671 17.38 -0.192574 19.4369L0.114852 20.5843L2.18175 20.0305C2.14218 20.1921 2.10748 20.3536 2.07783 20.5142C1.66232 22.7646 2.23855 24.75 3.74431 26.2558L4.58423 27.0957L6.0973 25.5827C6.14388 25.7426 6.19457 25.8997 6.24917 26.0536C7.01453 28.2102 8.50626 29.6415 10.5631 30.1926L11.7105 30.5001L12.2644 28.4332C12.3846 28.5484 12.5071 28.6591 12.6313 28.7651C14.3725 30.2501 16.38 30.7437 18.4369 30.1926L19.5843 29.8852L19.0309 27.8198C20.043 28.0673 21.2794 28.1799 22.5465 27.8404C23.5659 27.5673 24.4773 27.0341 25.2558 26.2558L26.0957 25.4158L24.5827 23.9028C26.3149 23.3988 28.4484 22.2146 29.1926 19.437L29.5001 18.2896L27.4332 17.7358C27.5484 17.6155 27.6591 17.493 27.7651 17.3688C29.2501 15.6275 29.7437 13.62 29.1926 11.5631ZM16.3958 22.5754C12.4944 23.6208 8.46996 21.2972 7.42457 17.3959C6.37918 13.4945 8.70276 9.47002 12.6041 8.42463C16.5055 7.37924 20.53 9.70282 21.5754 13.6042C22.6208 17.5055 20.2972 21.53 16.3958 22.5754Z" fill="#F3AA3C"/>
<path d="M13.0654 10.1465C10.1135 10.9375 8.35536 13.9827 9.14633 16.9347C9.93729 19.8866 12.9825 21.6447 15.9345 20.8538C18.8865 20.0628 20.6446 17.0176 19.8536 14.0656C19.0626 11.1136 16.0174 9.35554 13.0654 10.1465ZM15.2424 18.2711C13.7145 18.6805 12.1384 17.7705 11.729 16.2426C11.3196 14.7147 12.2296 13.1386 13.7575 12.7292C15.2854 12.3198 16.8615 13.2297 17.2709 14.7577C17.6803 16.2856 16.7704 17.8617 15.2424 18.2711Z" fill="#F3AA3C"/>
</g>
<defs>
<clipPath id="clip0_23_1550">
<rect width="30" height="30" fill="white" transform="translate(-0.5 0.5)"/>
</clipPath>
</defs>
</svg>
