<svg width="30" height="30" viewBox="0 0 30 30" fill="none" xmlns="http://www.w3.org/2000/svg">
<g clip-path="url(#clip0_23_1773)">
<path d="M27.5052 15.8887C27.3844 15.6417 27.3844 15.3585 27.5052 15.1115L28.6241 12.8226C29.247 11.5481 28.7534 10.0291 27.5003 9.36424L25.2498 8.1701C25.007 8.04132 24.8405 7.8121 24.793 7.54146L24.3528 5.03196C24.1077 3.63474 22.8153 2.69584 21.411 2.89453L18.8883 3.25136C18.6161 3.2898 18.3468 3.20226 18.1493 3.01119L16.3182 1.23979C15.2986 0.253432 13.7014 0.253373 12.6818 1.23979L10.8507 3.01136C10.6531 3.2025 10.3839 3.28986 10.1116 3.25154L7.58902 2.89471C6.18424 2.6959 4.89226 3.63492 4.64716 5.03213L4.20701 7.54151C4.15949 7.81222 3.99302 8.04137 3.75027 8.17022L1.4997 9.36436C0.246621 10.0292 -0.24697 11.5483 0.375995 12.8228L1.49484 15.1117C1.61554 15.3586 1.61554 15.6419 1.49484 15.8888L0.375936 18.1777C-0.247029 19.4521 0.246562 20.9712 1.49964 21.636L3.75021 22.8302C3.99302 22.959 4.15949 23.1882 4.20701 23.4588L4.64716 25.9683C4.87029 27.2403 5.96094 28.1323 7.21443 28.1322C7.33789 28.1322 7.46316 28.1235 7.58908 28.1057L10.1117 27.7489C10.3837 27.7102 10.6532 27.798 10.8507 27.989L12.6818 29.7604C13.1917 30.2537 13.8457 30.5002 14.5 30.5002C15.1541 30.5001 15.8085 30.2535 16.3181 29.7604L18.1493 27.989C18.3469 27.798 18.6162 27.7107 18.8883 27.7489L21.411 28.1057C22.8159 28.3044 24.1077 27.3655 24.3528 25.9683L24.793 23.4589C24.8406 23.1882 25.007 22.959 25.2498 22.8302L27.5003 21.636C28.7534 20.9712 29.247 19.4521 28.6241 18.1776L27.5052 15.8887ZM11.0394 7.7139C12.7885 7.7139 14.2116 9.13695 14.2116 10.8861C14.2116 12.6352 12.7885 14.0583 11.0394 14.0583C9.29028 14.0583 7.86722 12.6352 7.86722 10.8861C7.86722 9.13695 9.29028 7.7139 11.0394 7.7139ZM9.40207 21.8214C9.23315 21.9904 9.01173 22.0748 8.79036 22.0748C8.56899 22.0748 8.34751 21.9904 8.17865 21.8214C7.8408 21.4836 7.8408 20.9358 8.17865 20.5979L19.5979 9.17873C19.9356 8.84088 20.4835 8.84088 20.8213 9.17873C21.1592 9.51658 21.1592 10.0644 20.8213 10.4022L9.40207 21.8214ZM17.9605 23.2864C16.2113 23.2864 14.7883 21.8633 14.7883 20.1142C14.7883 18.3651 16.2113 16.942 17.9605 16.942C19.7096 16.942 21.1327 18.3651 21.1327 20.1142C21.1327 21.8633 19.7096 23.2864 17.9605 23.2864Z" fill="#F3AA3C"/>
<path d="M17.9605 18.6721C17.1654 18.6721 16.5186 19.3189 16.5186 20.114C16.5186 20.909 17.1654 21.5559 17.9605 21.5559C18.7555 21.5559 19.4023 20.909 19.4023 20.114C19.4023 19.3189 18.7555 18.6721 17.9605 18.6721Z" fill="#F3AA3C"/>
<path d="M11.0394 9.44409C10.2444 9.44409 9.59756 10.0909 9.59756 10.886C9.59756 11.681 10.2444 12.3279 11.0394 12.3279C11.8345 12.3279 12.4814 11.6811 12.4814 10.886C12.4813 10.091 11.8345 9.44409 11.0394 9.44409Z" fill="#F3AA3C"/>
</g>
<defs>
<clipPath id="clip0_23_1773">
<rect width="30" height="30" fill="white" transform="translate(-0.5 0.5)"/>
</clipPath>
</defs>
</svg>
