<svg width="30" height="30" viewBox="0 0 30 30" fill="none" xmlns="http://www.w3.org/2000/svg">
<g clip-path="url(#clip0_23_1676)">
<path d="M15.4375 0.5C13.4986 0.5 11.9219 2.0767 11.9219 4.01562C11.9219 5.95455 13.4986 7.53125 15.4375 7.53125C17.3764 7.53125 18.9531 5.95455 18.9531 4.01562C18.9531 2.0767 17.3764 0.5 15.4375 0.5Z" fill="#F3AA3C"/>
<path d="M27.7422 13.8008V14.6797C27.7422 15.767 26.7889 16.622 25.5937 16.3762C24.4223 12.3554 20.7103 9.40625 16.3164 9.40625H10.4443C10.1996 9.40625 9.96959 9.30412 9.81338 9.12647C8.98346 8.18744 7.78779 7.64844 6.53125 7.64844H3.89453C3.32471 7.64844 2.90658 8.18123 3.04053 8.73506L3.93057 12.4009C3.28 13.0807 2.73754 13.8446 2.3118 14.6797C0.551641 14.6797 -0.5 15.9346 -0.5 17.3164V19.9214C-0.5 21.5901 0.791875 22.1993 2.1659 23.17C2.71006 24.3331 3.46967 25.3621 4.42756 26.2333C4.55717 26.35 4.77344 26.5964 4.77344 26.9285V29.0013C4.77344 29.8279 5.44551 30.5 6.27203 30.5H9.42719C10.249 30.5 10.9258 29.9439 10.9258 28.7422H16.3164C16.3164 29.9439 16.9932 30.5 17.815 30.5H20.9702C21.7967 30.5 22.4688 29.8279 22.4688 29.0014C22.4688 27.6731 22.3183 26.7682 23.2455 25.8171C24.9458 24.0689 25.9844 21.6849 25.9844 19.0742C25.9844 18.7762 25.9662 18.4824 25.9396 18.1912C25.9561 18.1914 25.9729 18.1962 25.9895 18.1962C27.9153 18.1962 29.5 16.6297 29.5 14.6797V13.8008C29.5 12.6422 27.7422 12.6375 27.7422 13.8008ZM5.65234 17.3164C5.16695 17.3164 4.77344 16.9229 4.77344 16.4375C4.77344 15.952 5.16695 15.5586 5.65234 15.5586C6.13773 15.5586 6.53125 15.952 6.53125 16.4375C6.53125 16.9229 6.13773 17.3164 5.65234 17.3164ZM16.3164 14.6797H12.3193C11.1607 14.6797 11.1559 12.9219 12.3193 12.9219H16.3164C17.475 12.9219 17.4797 14.6797 16.3164 14.6797Z" fill="#F3AA3C"/>
</g>
<defs>
<clipPath id="clip0_23_1676">
<rect width="30" height="30" fill="white" transform="translate(-0.5 0.5)"/>
</clipPath>
</defs>
</svg>
