<svg width="30" height="30" viewBox="0 0 30 30" fill="none" xmlns="http://www.w3.org/2000/svg">
<path d="M24.4757 21.7548C23.0075 21.7548 21.8132 22.9507 21.8132 24.4212C21.8132 25.8924 23.0075 27.0891 24.4757 27.0891C25.9445 27.0891 27.1385 25.8924 27.1385 24.4212C27.1385 22.9507 25.9445 21.7548 24.4757 21.7548Z" fill="#F3AA3C"/>
<path d="M6.52175 21.7548C5.05286 21.7548 3.85852 22.9507 3.85852 24.4212C3.85852 25.8924 5.05286 27.0891 6.52175 27.0891C7.98983 27.0891 9.18417 25.8924 9.18417 24.4212C9.18427 22.9507 7.98993 21.7548 6.52175 21.7548Z" fill="#F3AA3C"/>
<path d="M25.978 10.5528C25.8375 10.1294 25.4413 9.84338 24.995 9.84338H23.7364V14.2705H27.2095L25.978 10.5528Z" fill="#F3AA3C"/>
<path d="M29.3142 15.927H23.7364V20.1622C23.9767 20.1209 24.2238 20.0978 24.4756 20.0978C26.7011 20.0978 28.5387 21.7917 28.77 23.9589H28.965C29.5364 23.9589 30 23.4953 30 22.9232V16.9006C30 16.4512 29.7136 16.0706 29.3142 15.927Z" fill="#F3AA3C"/>
<path d="M22.0403 4.94628C22.0403 4.37416 21.5767 3.91052 21.0051 3.91052H1.03505C0.463636 3.91052 0 4.37406 0 4.94628V22.9233C0 23.4955 0.463636 23.9591 1.03505 23.9591H2.22697C2.45838 21.7919 4.29586 20.098 6.52181 20.098C8.74696 20.098 10.5841 21.7919 10.8155 23.9591H18.9898H20.1817C20.3211 22.6543 21.0424 21.5224 22.0803 20.827L22.0403 4.94628Z" fill="#F3AA3C"/>
</svg>
