<svg width="208" height="58" viewBox="0 0 208 58" fill="none" xmlns="http://www.w3.org/2000/svg">
<g clip-path="url(#clip0_30_1602)">
<path d="M14.9158 13.3049C14.9158 11.9505 13.8133 10.8525 12.4533 10.8525C11.0933 10.8525 9.99076 11.9505 9.99076 13.3049V51.8073C9.99076 53.1617 11.0933 54.2597 12.4533 54.2597C13.8133 54.2597 14.9158 53.1617 14.9158 51.8073V13.3049Z" fill="#F5BB63"/>
<path d="M27.7206 2.45238C27.7206 1.09797 26.6181 0 25.2581 0C23.8981 0 22.7956 1.09797 22.7956 2.45238V51.8066C22.7956 53.161 23.8981 54.259 25.2581 54.259C26.6181 54.259 27.7206 53.161 27.7206 51.8066V2.45238Z" fill="#231F21"/>
<path d="M21.3183 9.6881C21.3183 8.33369 20.2158 7.23572 18.8557 7.23572C17.4957 7.23572 16.3932 8.33369 16.3932 9.6881V55.5476C16.3932 56.902 17.4957 58 18.8557 58C20.2158 58 21.3183 56.902 21.3183 55.5476V9.6881Z" fill="#F3AA3C"/>
<path fill-rule="evenodd" clip-rule="evenodd" d="M34.5779 33.0113C37.133 30.3313 38.2801 27.5821 37.436 25.3466C35.6768 20.6865 25.9316 20.0238 15.6696 23.8662C5.40754 27.7087 -1.48521 34.6014 0.274142 39.2612C0.991409 41.1612 3.03601 42.3966 5.90183 42.9333C4.81715 42.478 4.06193 41.8141 3.73329 40.9437C2.41484 37.4514 8.46134 31.9561 17.2386 28.6696C26.0158 25.3831 34.2 25.5498 35.5183 29.0421C35.9543 30.1969 35.5851 31.5706 34.5779 33.0113Z" fill="#C0C0C1"/>
<path d="M64.1564 38.0314C59.8272 38.4182 56.2357 38.6114 53.382 38.6114C51.4794 38.6114 50.0816 38.1667 49.1887 37.2774C48.2957 36.3882 47.8492 34.9962 47.8492 33.1014V23.8214C47.8492 21.7914 48.3053 20.3221 49.2178 19.4134C50.1496 18.4854 51.6347 18.0214 53.6731 18.0214H64.1564V22.0814H54.838C53.6732 22.0814 53.0908 22.6614 53.0908 23.8214V33.1014C53.0908 33.5462 53.217 33.9037 53.4693 34.1744C53.7412 34.4257 54.0808 34.5514 54.4885 34.5514C54.8962 34.5514 55.3428 34.5514 55.828 34.5514C56.3133 34.5322 56.8181 34.5127 57.3423 34.4934C57.8664 34.4742 58.3906 34.4547 58.9148 34.4354C59.4583 34.4162 60.1476 34.3774 60.9823 34.3194C61.8365 34.2614 62.8944 34.1937 64.1564 34.1164V38.0314ZM66.4893 18.0214H78.1373C80.0399 18.0214 81.4376 18.4564 82.3306 19.3264C83.2237 20.1771 83.6701 21.4822 83.6701 23.2414C83.6701 24.4014 83.4178 25.3487 82.913 26.0834C82.4083 26.7987 81.7871 27.3014 81.0493 27.5914C82.6218 28.0167 83.6896 29.0607 84.2525 30.7234C84.4468 31.3227 84.5437 32.0187 84.5437 32.8114C84.5437 34.7062 84.0973 36.0982 83.2042 36.9874C82.3112 37.8767 80.9135 38.3214 79.0109 38.3214H66.4893V18.0214ZM79.3021 31.9414C79.3021 30.7814 78.7197 30.2014 77.5549 30.2014H71.7309V34.2614H77.5549C78.7197 34.2614 79.3021 33.6814 79.3021 32.5214V31.9414ZM78.4285 23.8214C78.4285 22.6614 77.8461 22.0814 76.6813 22.0814H71.7309V26.1414H76.6813C77.8461 26.1414 78.4285 25.5614 78.4285 24.4014V23.8214ZM90.8034 38.3214H85.125L92.8418 18.0214H98.6658L106.383 38.3214H100.704L99.3938 34.6964H92.1138L90.8034 38.3214ZM93.4242 30.9264H98.0834L95.7538 24.1114L93.4242 30.9264ZM107.837 18.0214H120.068C122.106 18.0214 123.582 18.4854 124.494 19.4134C125.426 20.3221 125.892 21.7914 125.892 23.8214V26.7214C125.892 28.7514 125.426 30.2304 124.494 31.1584C123.582 32.0672 122.106 32.5214 120.068 32.5214H113.079V38.3214H107.837V18.0214ZM120.65 23.8214C120.65 22.6614 120.068 22.0814 118.903 22.0814H113.079V28.4614H118.903C120.068 28.4614 120.65 27.8814 120.65 26.7214V23.8214ZM143.363 17.7314C143.848 17.7314 144.722 17.8281 145.984 18.0214V21.9364H144.819C144.528 21.9364 144.265 22.0332 144.033 22.2264C143.8 22.4004 143.625 22.5937 143.508 22.8064L140.742 28.0264L146.42 38.3214H140.888L136.374 30.0564H133.753V38.3214H128.512V18.0214H133.753V25.9964H136.374L139.286 20.4864C139.713 19.6744 140.237 19.0171 140.858 18.5144C141.499 17.9924 142.334 17.7314 143.363 17.7314ZM151.802 38.3214H146.124L153.84 18.0214H159.664L167.381 38.3214H161.703L160.392 34.6964H153.112L151.802 38.3214ZM154.423 30.9264H159.082L156.752 24.1114L154.423 30.9264ZM178.445 34.2614H167.671V30.2014L174.66 18.0214H180.484L173.495 30.2014H178.445V25.8514H183.687V30.2014H185.725V34.2614H183.687V38.3214H178.445V34.2614ZM193.891 30.2014C192.726 30.2014 192.143 30.7814 192.143 31.9414V33.1014C192.143 33.5462 192.27 33.9037 192.522 34.1744C192.794 34.4257 193.153 34.5514 193.599 34.5514H197.967C198.414 34.5514 198.763 34.4257 199.016 34.1744C199.288 33.9037 199.423 33.5462 199.423 33.1014V31.9414C199.423 30.7814 198.841 30.2014 197.676 30.2014H193.891ZM194.473 21.7914C193.308 21.7914 192.726 22.3714 192.726 23.5314V24.4014C192.726 25.5614 193.308 26.1414 194.473 26.1414H197.094C198.259 26.1414 198.841 25.5614 198.841 24.4014V23.5314C198.841 22.3714 198.259 21.7914 197.094 21.7914H194.473ZM204.665 33.1014C204.665 34.9962 204.218 36.3882 203.325 37.2774C202.432 38.1667 201.035 38.6114 199.132 38.6114H192.435C190.532 38.6114 189.134 38.1667 188.241 37.2774C187.348 36.3882 186.902 34.9962 186.902 33.1014V32.8114C186.902 31.3422 187.271 30.1242 188.008 29.1574C188.591 28.3842 189.387 27.8622 190.396 27.5914C189.523 27.3014 188.814 26.7987 188.27 26.0834C187.746 25.3487 187.484 24.4014 187.484 23.2414V22.9514C187.484 21.1922 187.931 19.8871 188.824 19.0364C189.717 18.1664 191.114 17.7314 193.017 17.7314H198.55C200.452 17.7314 201.85 18.1664 202.743 19.0364C203.636 19.8871 204.083 21.1922 204.083 22.9514V23.2414C204.083 24.4014 203.811 25.3487 203.267 26.0834C202.743 26.7987 202.044 27.3014 201.171 27.5914C202.743 28.0167 203.811 29.0607 204.374 30.7234C204.568 31.3227 204.665 32.0187 204.665 32.8114V33.1014Z" fill="#F3AA3C"/>
</g>
<defs>
<clipPath id="clip0_30_1602">
<rect width="208" height="58" fill="white"/>
</clipPath>
</defs>
</svg>
